HIERARCHY
ROOT ui
{
	 OFFSET 0 0 0
	 CHANNELS 3 XPosition YPosition Z Position
	 EndSite
	 {
	 OFFSET 0 -1 0
	 }
}
ROOT li
{
	 OFFSET 0 0 0
	 CHANNELS 3 XPosition YPosition Z Position
	 EndSite
	 {
	 OFFSET 0 -1 0
	 }
}
ROOT ul
{
	 OFFSET 0 0 0
	 CHANNELS 3 XPosition YPosition Z Position
	 EndSite
	 {
	 OFFSET 0 -1 0
	 }
}
ROOT ll
{
	 OFFSET 0 0 0
	 CHANNELS 3 XPosition YPosition Z Position
	 EndSite
	 {
	 OFFSET 0 -1 0
	 }
}
ROOT tt
{
	 OFFSET 0 0 0
	 CHANNELS 3 XPosition YPosition Z Position
	 EndSite
	 {
	 OFFSET 0 -1 0
	 }
}
ROOT tb
{
	 OFFSET 0 0 0
	 CHANNELS 3 XPosition YPosition Z Position
	 EndSite
	 {
	 OFFSET 0 -1 0
	 }
}
ROOT td
{
	 OFFSET 0 0 0
	 CHANNELS 3 XPosition YPosition Z Position
	 EndSite
	 {
	 OFFSET 0 -1 0
	 }
}
ROOT v
{
	 OFFSET 0 0 0
	 CHANNELS 3 XPosition YPosition Z Position
	 EndSite
	 {
	 OFFSET 0 -1 0
	 }
}
ROOT bn
{
	 OFFSET 0 0 0
	 CHANNELS 3 XPosition YPosition Z Position
	 EndSite
	 {
	 OFFSET 0 -1 0
	 }
}
MOTION
Frames: 21
Frame Time: 0.002
6.615650057792663E-4	-3.778550028800964E-4	0		0.4513041381835938	-2.29605859375	0		-1.0613048095703126	-0.031575702667236326	0		-0.7201862182617188	-2.304795166015625	0		1.398867431640625	-0.6758963623046875	0		3.1433515625	-0.004840181827545166	0		4.7385517578125	0.07541453552246094	0		5.5984921875	0.18909982299804687	0		-0.19001097106933593	5.948392578125	0		
0.04647987365722656	-0.0024325840473175047	0		0.44509579467773436	-2.2979501953125	0		-1.0654517822265626	-0.03150125503540039	0		-0.7592742309570313	-2.300939208984375	0		1.39262646484375	-0.6797946166992187	0		3.148359619140625	0.0019989099502563477	0		4.7292275390625	0.06755935668945312	0		5.598498046875	0.2010946044921875	0		-0.19509007263183595	5.949482421875	0		
-0.007557875156402588	-2.51787006855011E-4	0		0.44100543212890625	-2.29789404296875	0		-1.0695247802734376	-0.031433486938476564	0		-0.7304850463867187	-2.30661279296875	0		1.3974788818359376	-0.6829468383789062	0		3.14912841796875	-0.0050759978294372555	0		4.73515283203125	0.0673583984375	0		5.59559228515625	0.20112477111816407	0		-0.19911726379394531	5.94954345703125	0		
0.03845670700073242	-0.0023209810256958007	0		0.4488776550292969	-2.3051123046875	0		-1.1433455810546875	-0.024802993774414063	0		-0.7795985717773437	-2.31254296875	0		1.39936474609375	-0.69003759765625	0		3.1296533203125	0.016306774139404297	0		4.72847314453125	0.07943974304199218	0		5.58862353515625	0.21521372985839843	0		-0.18780221557617188	5.9592587890625	0		
0.04082750701904297	0.004588128089904785	0		0.44818777465820314	-2.30013818359375	0		-1.073171630859375	-0.0274100341796875	0		-0.7321209716796875	-2.3006396484375	0		1.391822998046875	-0.6789147338867187	0		3.14621240234375	-0.01313396167755127	0		4.73155224609375	0.07329605865478515	0		5.59007373046875	0.2011553955078125	0		-0.19252162170410156	5.960328125	0		
0.034177867889404294	0.001695111036300659	0		0.43372698974609375	-2.293856689453125	0		-1.0767548828125	-0.02736378288269043	0		-0.7726875	-2.29876513671875	0		1.3861461181640624	-0.6828389282226562	0		3.131238525390625	0.014146950721740723	0		4.71797216796875	0.07352833557128906	0		5.587517578125	0.20115992736816407	0		-0.21030859375	5.949685546875	0		
0.027735010147094726	-0.002204560041427612	0		0.4381103515625	-2.30500390625	0		-1.0900614013671874	-0.02510107231140137	0		-0.7431757202148438	-2.30446826171875	0		1.375947265625	-0.6756596069335937	0		3.12961474609375	0.00211843204498291	0		4.71566357421875	0.07550924682617187	0		5.58216015625	0.18920713806152345	0		-0.21362673950195313	5.94971923828125	0		
0.024629520416259765	-0.0021800670623779296	0		0.42315313720703124	-2.2977138671875	0		-1.0873033447265625	-0.031204038619995118	0		-0.746293212890625	-2.30443994140625	0		1.376612548828125	-0.6857295532226563	0		3.106671630859375	0.009574334144592285	0		4.711513671875	0.07353224182128906	0		5.57579443359375	0.20326995849609375	0		-0.215723876953125	5.94872265625	0		
0.021784067153930664	-0.0021633369922637938	0		0.432137451171875	-2.304966552734375	0		-1.09014892578125	-0.031182512283325196	0		-0.726468994140625	-2.31893310546875	0		1.3826719970703125	-0.6899198608398438	0		3.13916552734375	-0.020223922729492187	0		4.71348779296875	0.06541841125488282	0		5.5872490234375	0.195601318359375	0		-0.20334519958496095	5.95740087890625	0		
0.02535985565185547	0.004709075927734375	0		0.4185751342773438	-2.3037119140625	0		-1.1625989990234376	-0.024597782135009766	0		-0.805632568359375	-2.299195556640625	0		1.3831788330078125	-0.6859837036132812	0		3.123465576171875	0.01907972526550293	0		4.70922314453125	0.07945351409912109	0		5.58130615234375	0.214844482421875	0		-0.22110421752929688	5.94875	0		
0.016888940811157226	-0.002152772903442383	0		0.4433607177734375	-2.299319580078125	0		-1.090955322265625	-0.027256874084472655	0		-0.7520116577148438	-2.302450439453125	0		1.3719320068359375	-0.6827835693359375	0		3.10961376953125	-0.004672014236450196	0		4.70481884765625	0.07549105072021485	0		5.57738720703125	0.2011072235107422	0		-0.22340667724609375	5.94875244140625	0		
0.014832855224609375	-0.0021586771011352537	0		0.41537664794921875	-2.295741943359375	0		-1.0971002197265625	-0.03117088508605957	0		-0.7561141967773437	-2.304410400390625	0		1.363034423828125	-0.6756350708007812	0		3.101716552734375	0.0024524950981140137	0		4.69276513671875	0.07570585632324218	0		5.57295703125	0.18913739013671876	0		-0.2264348602294922	5.9497685546875	0		
0.013025212287902831	-0.0021718199253082274	0		0.4213208923339844	-2.30693212890625	0		-1.098907958984375	-0.031184597015380858	0		-0.747103271484375	-2.312669189453125	0		1.3591376953125	-0.6796015625	0		3.11974658203125	-0.005006874084472656	0		4.70577392578125	0.06735993957519532	0		5.5746318359375	0.20107086181640624	0		-0.22726826477050782	5.9487333984375	0		
0.011451596260070801	-0.0021915760040283204	0		0.36012677001953125	-2.2896064453125	0		-1.1744178466796875	-0.027543882369995117	0		-0.7815514526367188	-2.306949951171875	0		1.3723369140625	-0.689953125	0		3.10264892578125	0.016334054946899414	0		4.69833642578125	0.07348314666748047	0		5.573509765625	0.2010560302734375	0		-0.21461038208007813	5.9593955078125	0		
0.0162499942779541	0.004646518230438232	0		0.42355926513671877	-2.3000888671875	0		-1.0977498779296875	-0.02732699203491211	0		-0.7808557739257812	-2.305023681640625	0		1.3672303466796876	-0.67888623046875	0		3.121634521484375	-0.0131442928314209	0		4.7069765625	0.07325064086914063	0		5.57254150390625	0.20104759216308593	0		-0.2159900665283203	5.95936962890625	0		
-0.04103219604492187	-1.2346799671649934E-4	0		0.4115480651855469	-2.29387060546875	0		-1.1030001220703125	-0.03127193069458008	0		-0.749125244140625	-2.3107978515625	0		1.357142333984375	-0.67570703125	0		3.124078857421875	0.013768987655639648	0		4.690998046875	0.08158188629150391	0		5.57171337890625	0.20104840087890624	0		-0.23142808532714843	5.94865576171875	0		
0.007946835041046143	-0.002279731035232544	0		0.432416259765625	-2.301393310546875	0		-1.1039857177734376	-0.03131326675415039	0		-0.7609116821289063	-2.302591552734375	0		1.356161376953125	-0.675730224609375	0		3.10982666015625	0.002053750991821289	0		4.6858779296875	0.07567452239990234	0		5.57101123046875	0.201060546875	0		-0.23343504333496093	5.94964306640625	0		
-0.04284586715698242	-1.932380050420761E-4	0		0.4154790344238281	-2.307064453125	0		-1.104813232421875	-0.03135930442810059	0		-0.7549893798828125	-2.31478857421875	0		1.35325048828125	-0.6797077026367188	0		3.0891611328125	0.00949381446838379	0		4.694001953125	0.0734803237915039	0		5.563306640625	0.2032036895751953	0		-0.23334037780761718	5.9485830078125	0		
0.0064361228942871095	-0.0023528950214385985	0		0.4256618957519531	-2.31434228515625	0		-1.1014071044921876	-0.027499828338623047	0		-0.8116100463867187	-2.312578125	0		1.3704359130859376	-0.6861325073242187	0		3.10811376953125	-0.006954010963439942	0		4.6922734375	0.07151806640625	0		5.5593671875	0.21554505920410155	0		-0.21889140319824218	5.9572041015625	0		
0.015110179901123047	0.007405006885528564	0		0.4215040283203125	-2.298288818359375	0		-1.1019547119140625	-0.027552061080932617	0		-0.7469423217773438	-2.30508642578125	0		1.3757384033203126	-0.6932852172851562	0		3.12414501953125	0.018683441162109377	0		4.6959033203125	0.07944987487792969	0		5.57181298828125	0.21490460205078124	0		-0.22047218322753906	5.95918505859375	0		
0.005466379165649414	-0.002427680015563965	0		0.4061651916503906	-2.29598388671875	0		-1.10646484375	-0.03151504707336426	0		-0.7982047119140625	-2.2989931640625	0		1.356780029296875	-0.6728809204101562	0		3.078353271484375	0.002705899953842163	0		4.68752685546875	0.08166188812255859	0		5.56213134765625	0.20337918090820312	0		-0.23522630310058593	5.94846142578125	0		
